<svg xmlns="http://www.w3.org/2000/svg" width="64" height="64" viewBox="0 0 64 64">
  <g id="OZiva_Cash" data-name="OZiva Cash" transform="translate(-187 -428)">
    <rect id="Bound" width="64" height="64" transform="translate(187 428)" fill="none" opacity="0"/>
    <g id="OZiva_cash_" data-name="OZiva cash " transform="translate(191 430.004)">
      <path id="Path_9731" data-name="Path 9731" d="M73.5,30.4,90.035-.042l17.123,9.3L88.065,44.409,73.5,36.5Z" transform="translate(-66.668 0.038)" fill="#6abe59" fill-rule="evenodd"/>
      <path id="Path_9732" data-name="Path 9732" d="M104.341,39.215l8.147,4.428-.14.255.255.14a3.214,3.214,0,0,0,1.289,4.358l.255.14L99.791,74.966l-.255-.14a3.213,3.213,0,0,0-4.358,1.29l-.14.255-8.405-4.566.138-.255a3.215,3.215,0,0,0-1.29-4.359l-.255-.14,14.361-26.43.255.14a3.214,3.214,0,0,0,4.359-1.29Zm7.623,4.805L104.564,40a3.8,3.8,0,0,1-4.738,1.4L86.009,66.835a3.8,3.8,0,0,1,1.4,4.738l7.4,4.021a3.8,3.8,0,0,1,4.738-1.4l13.813-25.428a3.8,3.8,0,0,1-1.4-4.738Z" transform="translate(-77.303 -35.571)" fill="#008b60" fill-rule="evenodd"/>
      <path id="Path_9733" data-name="Path 9733" d="M169.857,151.83a8.2,8.2,0,1,1-6.244-.658,8.2,8.2,0,0,1,6.244.658" transform="translate(-143.075 -136.813)" fill="#2f6c5d"/>
      <g id="Group_1540" data-name="Group 1540" transform="translate(16.008 16.468)" opacity="0.3">
        <g id="Group_1539" data-name="Group 1539" transform="translate(0)" opacity="0.3">
          <g id="Group_1537" data-name="Group 1537" transform="translate(0.415 0.415)" opacity="0.3">
            <path id="Path_9734" data-name="Path 9734" d="M179.973,181.61l-3.313,6.1.2.107.526.283.03.016,1.044-1.919a2.455,2.455,0,0,1,2.684-.9l-1.964,3.617.372.2,1.964-3.615a2.649,2.649,0,0,1,.421,3.431,7.125,7.125,0,0,1-.78,1.22l.571.312.009-.009,6.637-1.965.569-1.053L182.6,189.3V189.3a3.554,3.554,0,0,0-.628-4.665l.809-1.487-.367-.2-.809,1.487a2.764,2.764,0,0,0-2.238.078l1.352-2.488Z" transform="translate(-176.66 -181.61)" fill="#1d5f3e"/>
          </g>
          <g id="Group_1538" data-name="Group 1538" opacity="0.3">
            <path id="Path_9735" data-name="Path 9735" d="M175.8,177.149l1.286.7-1.135,2.087a2.928,2.928,0,0,1,1.462.066l.828-1.523.906.491-.829,1.523a3.772,3.772,0,0,1,.79,4.276l6.4-1.893-.978,1.815-6.685,1.974-.116.116-1.092-.595.226-.284a6.812,6.812,0,0,0,.748-1.169h0a2.509,2.509,0,0,0-.068-2.8l-1.924,3.543-.911-.487,1.926-3.546a2.3,2.3,0,0,0-1.974.883l-1.173,2.157-.3-.158-.987-.537Zm.246.829-3.021,5.556.211.115.913-1.679.021-.025a2.764,2.764,0,0,1,3.027-.988l.142.057.012-.021.084.059.083.033-.011.018.124.088a2.95,2.95,0,0,1,.516,3.817,7.419,7.419,0,0,1-.594.979l.141.076,6.411-1.9.161-.3-6.5,1.924.526-.715a3.246,3.246,0,0,0-.534-4.254l-.151-.1-.167-.072a2.456,2.456,0,0,0-1.991.078l-.823.366,1.635-3.01Z" transform="translate(-172.201 -177.149)" fill="#fff" fill-rule="evenodd"/>
          </g>
        </g>
      </g>
      <path id="Path_9736" data-name="Path 9736" d="M178.553,179.85l-3.313,6.094.2.107.526.279.03.017,1.042-1.92a2.455,2.455,0,0,1,2.685-.9l-1.964,3.615.366.2,1.964-3.615a2.653,2.653,0,0,1,.42,3.43,7.052,7.052,0,0,1-.781,1.221l.571.311.009-.009,6.637-1.964.569-1.053-6.331,1.872v-.008a3.554,3.554,0,0,0-.629-4.665l.809-1.487-.366-.2-.809,1.487a2.753,2.753,0,0,0-2.237.079l1.352-2.488Z" transform="translate(-158.95 -163.131)" fill="#fff"/>
      <path id="Path_9737" data-name="Path 9737" d="M174.384,175.388l1.283.7-1.135,2.087a2.923,2.923,0,0,1,1.461.064l.831-1.524.9.5-.828,1.521a3.772,3.772,0,0,1,.79,4.276l6.4-1.891-.981,1.807-6.685,1.974-.116.116-1.092-.594.226-.286a6.753,6.753,0,0,0,.746-1.169h0a2.511,2.511,0,0,0-.068-2.8l-1.926,3.543-.9-.491,1.926-3.543a2.3,2.3,0,0,0-1.974.882l-1.175,2.165-.3-.167-.52-.278-.466-.254Zm-2.565,6.5.913-1.681.021-.025a2.756,2.756,0,0,1,3.027-.987l.132.055.012-.021.08.057.091.037-.011.02.121.086a2.952,2.952,0,0,1,.515,3.817,7.379,7.379,0,0,1-.594.98l.141.076,6.411-1.9.155-.287-6.016,1.779V183.4l.037-.068a3.248,3.248,0,0,0-.526-4.264l-.162-.108-.158-.068a2.451,2.451,0,0,0-1.99.078l-.824.367,1.636-3.011-.208-.113-3.019,5.557Z" transform="translate(-154.905 -159.083)" fill="#fff" fill-rule="evenodd"/>
      <path id="Path_9738" data-name="Path 9738" d="M168.671,4.645,139.979,32.523,153.563,46.5l28.692-27.878Z" transform="translate(-126.971 -4.213)" fill="#6abe59"/>
      <path id="Path_9739" data-name="Path 9739" d="M211.067,53.044l.2.208a3.214,3.214,0,0,0,4.545.064l.208-.2,6.464,6.651-.209.2.2.208a3.217,3.217,0,0,0-.063,4.546l.2.208L201.047,85.89l-.2-.209a3.214,3.214,0,0,0-4.545-.064l-.209.2-6.666-6.86.208-.2a3.214,3.214,0,0,0,.064-4.545l-.2-.208Zm10.808,6.927L216,53.93a3.8,3.8,0,0,1-4.941-.071L190.314,74.028a3.8,3.8,0,0,1-.071,4.941l5.871,6.041a3.8,3.8,0,0,1,4.941.07l20.756-20.168a3.8,3.8,0,0,1,.068-4.942Z" transform="translate(-171.815 -48.114)" fill="#008b60" fill-rule="evenodd"/>
      <path id="Path_9740" data-name="Path 9740" d="M300.874,146.877a7.922,7.922,0,1,1-2.545-1.754,7.922,7.922,0,0,1,2.545,1.754" transform="translate(-260.56 -131.042)" fill="#2f6c5d"/>
      <g id="Group_1544" data-name="Group 1544" transform="translate(27.783 15.037)" opacity="0.3">
        <g id="Group_1543" data-name="Group 1543" transform="translate(0)" opacity="0.3">
          <g id="Group_1541" data-name="Group 1541" transform="translate(0.443 0.432)" opacity="0.3">
            <path id="Path_9741" data-name="Path 9741" d="M308.627,166.41l-4.978,4.834.157.161.413.425.024.025,1.566-1.523a2.457,2.457,0,0,1,2.831-.063l-2.951,2.868.291.3,2.952-2.868a2.653,2.653,0,0,1-.62,3.4,7.121,7.121,0,0,1-1.109.934l.454.465h.012l6.92.1.858-.837-6.6-.093h.007a3.554,3.554,0,0,0,.79-4.641l1.215-1.185-.291-.3-1.215,1.185a2.764,2.764,0,0,0-2.159-.591l2.031-1.974Z" transform="translate(-303.649 -166.41)" fill="#1d5f3e"/>
          </g>
          <g id="Group_1542" data-name="Group 1542" opacity="0.3">
            <path id="Path_9742" data-name="Path 9742" d="M304.416,161.765l1.024,1.053-1.711,1.656a2.933,2.933,0,0,1,1.377.5l1.244-1.21.717.738-1.245,1.21a3.78,3.78,0,0,1-.52,4.316l6.664.093-1.477,1.44-6.976-.1-.145.067-.859-.881.3-.205a6.812,6.812,0,0,0,1.061-.894h0a2.511,2.511,0,0,0,.767-2.69l-2.9,2.81-.717-.738,2.9-2.81a2.3,2.3,0,0,0-2.151.254l-1.764,1.711-.236-.245h0l-.782-.8Zm-4.383,5.444,1.37-1.332.028-.017a2.764,2.764,0,0,1,3.186-.042l.116.093.017-.016.058.076.078.062-.017.017.091.118a2.952,2.952,0,0,1-.646,3.8,7.418,7.418,0,0,1-.858.759l.112.115,6.685.095.24-.233-6.587-.093.526-.526h0a3.255,3.255,0,0,0,.763-4.229l-.113-.14-.139-.12a2.456,2.456,0,0,0-1.923-.519l-.9.105,2.457-2.388-.17-.174-4.539,4.408Z" transform="translate(-298.989 -161.765)" fill="#fff" fill-rule="evenodd"/>
          </g>
        </g>
      </g>
      <path id="Path_9743" data-name="Path 9743" d="M307.8,164.29l-4.976,4.834.157.161.413.425.024.025,1.572-1.52a2.456,2.456,0,0,1,2.831-.063l-2.951,2.868.291.3,2.951-2.868a2.655,2.655,0,0,1-.619,3.4,7.121,7.121,0,0,1-1.11.929l.454.465h.011l6.92.1.857-.837-6.6-.093h.008a3.554,3.554,0,0,0,.79-4.639l1.216-1.185-.292-.3-1.223,1.185a2.764,2.764,0,0,0-2.159-.591l2.031-1.974Z" transform="translate(-274.67 -149.017)" fill="#fff"/>
      <path id="Path_9744" data-name="Path 9744" d="M303.584,159.641l1.02,1.053-1.7,1.656a2.934,2.934,0,0,1,1.377.5l1.252-1.208.719.737L305,163.587a3.777,3.777,0,0,1-.519,4.316l6.662.093-1.475,1.44-6.976-.1-.143.072-.866-.886.3-.205a6.819,6.819,0,0,0,1.061-.89h0a2.513,2.513,0,0,0,.767-2.692l-2.9,2.81-.717-.738,2.9-2.81a2.3,2.3,0,0,0-2.149.254l-1.769,1.711-.236-.245h0l-.78-.8Zm-4.383,5.445,1.379-1.331.026-.017a2.764,2.764,0,0,1,3.186-.042l.116.093.017-.016.059.078.076.062-.017.016.091.118a2.953,2.953,0,0,1-.646,3.8q-.222.229-.465.438l.6-.344a3.244,3.244,0,0,0,.741-4.212l-.1-.12-.165-.141a2.456,2.456,0,0,0-1.923-.519l-.9.105,2.457-2.388-.166-.171-4.538,4.408Zm3.584,3.4-.157.121.111.113,6.685.095.24-.234Z" transform="translate(-270.451 -144.801)" fill="#fff" fill-rule="evenodd"/>
      <path id="Path_9745" data-name="Path 9745" d="M114.334,280.45H76.527a2.907,2.907,0,0,0-2.907,2.907v28.113a2.907,2.907,0,0,0,2.907,2.907h37.807a2.907,2.907,0,0,0,2.907-2.907V283.357a2.907,2.907,0,0,0-2.908-2.908Z" transform="translate(-66.776 -254.379)" fill="#fecd10"/>
      <path id="Path_9746" data-name="Path 9746" d="M208.792,287.6,175.55,320.824h31.368a2.881,2.881,0,0,0,2.907-2.874V289.837a2.938,2.938,0,0,0-1.033-2.238Z" transform="translate(-159.231 -260.865)" fill="#f9a01e" opacity="0.24"/>
      <path id="Path_9747" data-name="Path 9747" d="M102.539,280,75,307.578v3.484a2.881,2.881,0,0,0,2.907,2.872h.009L111.853,280Z" transform="translate(-68.028 -253.972)" fill="#f9a01e" opacity="0.24"/>
      <g id="Group_1546" data-name="Group 1546" transform="translate(16.19 26.773)" opacity="0.24">
        <g id="Group_1545" data-name="Group 1545" opacity="0.24">
          <path id="Path_9748" data-name="Path 9748" d="M207.4,288.01,174.16,321.234h31.368a2.882,2.882,0,0,0,2.907-2.875V290.249a2.939,2.939,0,0,0-1.033-2.238" transform="translate(-174.16 -288.01)" fill="#f9a01e" opacity="0.24"/>
        </g>
      </g>
      <g id="Group_1548" data-name="Group 1548" transform="translate(6.843 26.065)" opacity="0.24">
        <g id="Group_1547" data-name="Group 1547" transform="translate(0 0)" opacity="0.24">
          <path id="Path_9749" data-name="Path 9749" d="M101.149,280.41,73.61,307.988v3.48a2.882,2.882,0,0,0,2.907,2.872h.009l33.931-33.931Z" transform="translate(-73.61 -280.409)" fill="#f9a01e" opacity="0.24"/>
        </g>
      </g>
      <path id="Path_9750" data-name="Path 9750" d="M425.229,421.22h-8.241a3.878,3.878,0,1,0,0,7.757h8.24Z" transform="translate(-374.764 -382.063)" fill="#2f6c5d"/>
      <path id="Path_9751" data-name="Path 9751" d="M504.092,614.634a.292.292,0,0,1,.084-.207.325.325,0,0,1,.195-.088h.086a.819.819,0,0,0,.094-.013,1.108,1.108,0,0,0,.124-.024,1.618,1.618,0,0,0,.612-.279,1.649,1.649,0,0,0,.447-.505,1,1,0,0,0,.058-.112.725.725,0,0,0,.039-.093l.029-.08a.316.316,0,0,1,.349-.186.263.263,0,0,1,.185.132.3.3,0,0,1,.017.246l-.039.108a1.235,1.235,0,0,1-.053.121,1.612,1.612,0,0,1-.079.151,2.238,2.238,0,0,1-1.435,1.067,1.3,1.3,0,0,1-.168.03,1.166,1.166,0,0,1-.132.017h-.115a.263.263,0,0,1-.217-.08.294.294,0,0,1-.084-.205" transform="translate(-457.23 -556.054)" fill="#f9a01e"/>
      <path id="Path_9752" data-name="Path 9752" d="M469.01,626.945a.291.291,0,0,1,.291-.289h2.328a.291.291,0,0,1,.284.405.3.3,0,0,1-.067.1.292.292,0,0,1-.216.079h-2.324a.291.291,0,0,1-.291-.291" transform="translate(-425.411 -568.4)" fill="#f9a01e"/>
      <path id="Path_9753" data-name="Path 9753" d="M433.95,626.945a.291.291,0,0,1,.291-.289h2.324a.291.291,0,0,1,.284.405.3.3,0,0,1-.067.1.293.293,0,0,1-.216.079h-2.324a.291.291,0,0,1-.291-.291" transform="translate(-393.61 -568.4)" fill="#f9a01e"/>
      <path id="Path_9754" data-name="Path 9754" d="M398.89,626.945a.291.291,0,0,1,.291-.289h2.324a.292.292,0,0,1,.116.017.288.288,0,0,1,.167.158.292.292,0,0,1,0,.23.3.3,0,0,1-.067.1.29.29,0,0,1-.216.079h-2.324a.3.3,0,0,1-.112-.022.291.291,0,0,1-.18-.268" transform="translate(-361.81 -568.4)" fill="#f9a01e"/>
      <path id="Path_9755" data-name="Path 9755" d="M363.83,626.945a.291.291,0,0,1,.291-.289h2.324a.291.291,0,0,1,.284.405.3.3,0,0,1-.067.1.29.29,0,0,1-.216.079h-2.324a.291.291,0,0,1-.291-.291" transform="translate(-330.009 -568.4)" fill="#f9a01e"/>
      <path id="Path_9756" data-name="Path 9756" d="M328.78,626.945a.289.289,0,0,1,.29-.289h2.324a.291.291,0,0,1,.283.405.3.3,0,0,1-.067.1.29.29,0,0,1-.216.079H329.07A.291.291,0,0,1,328.78,626.945Z" transform="translate(-298.216 -568.4)" fill="#f9a01e"/>
      <path id="Path_9757" data-name="Path 9757" d="M293.72,626.945a.291.291,0,0,1,.291-.289h2.324a.291.291,0,1,1,0,.58h-2.324a.291.291,0,0,1-.291-.291" transform="translate(-266.416 -568.4)" fill="#f9a01e"/>
      <path id="Path_9758" data-name="Path 9758" d="M258.66,626.945a.291.291,0,0,1,.291-.289h2.324a.291.291,0,0,1,.283.405.3.3,0,0,1-.067.1.292.292,0,0,1-.216.079h-2.324a.291.291,0,0,1-.291-.291" transform="translate(-234.615 -568.4)" fill="#f9a01e"/>
      <path id="Path_9759" data-name="Path 9759" d="M223.6,626.95a.291.291,0,0,1,.291-.289h2.324a.291.291,0,0,1,0,.58h-2.324a.291.291,0,0,1-.291-.291" transform="translate(-202.814 -568.405)" fill="#f9a01e"/>
      <path id="Path_9760" data-name="Path 9760" d="M188.54,626.945a.291.291,0,0,1,.291-.289h2.324a.291.291,0,0,1,.283.405.3.3,0,0,1-.067.1.291.291,0,0,1-.216.079h-2.324a.291.291,0,0,1-.291-.291" transform="translate(-171.013 -568.4)" fill="#f9a01e"/>
      <path id="Path_9761" data-name="Path 9761" d="M153.48,626.945a.291.291,0,0,1,.291-.289H156.1a.291.291,0,1,1,0,.58H153.77a.291.291,0,0,1-.291-.291" transform="translate(-139.213 -568.4)" fill="#f9a01e"/>
      <path id="Path_9762" data-name="Path 9762" d="M118.43,626.945a.289.289,0,0,1,.29-.289h2.324a.291.291,0,0,1,.283.405.3.3,0,0,1-.067.1.292.292,0,0,1-.216.079H118.72a.291.291,0,0,1-.29-.291" transform="translate(-107.42 -568.4)" fill="#f9a01e"/>
      <path id="Path_9763" data-name="Path 9763" d="M88.274,615.11a.338.338,0,0,1,.221.014.279.279,0,0,1,.146.132s.014.028.037.076c.012.024.03.051.049.084a.763.763,0,0,0,.071.105,1.65,1.65,0,0,0,.5.456,1.616,1.616,0,0,0,.638.216,1.078,1.078,0,0,0,.132-.008c.038,0,.068-.013.1-.013h.1a.294.294,0,0,1,.116.017.291.291,0,0,1,.1.484.3.3,0,0,1-.1.062.29.29,0,0,1-.116.017h-.1a1.175,1.175,0,0,1-.132.013,1.608,1.608,0,0,1-.17,0,2.182,2.182,0,0,1-.866-.29,2.229,2.229,0,0,1-.674-.612,1.288,1.288,0,0,1-.093-.141c-.026-.043-.05-.08-.067-.113l-.05-.1a.3.3,0,0,1-.008-.246.252.252,0,0,1,.066-.093.255.255,0,0,1,.1-.054" transform="translate(-79.897 -557.917)" fill="#f9a01e"/>
      <path id="Path_9764" data-name="Path 9764" d="M86.4,580.25a.291.291,0,0,1,.291.291v2.324a.263.263,0,0,1-.079.192.341.341,0,0,1-.2.092.249.249,0,0,1-.113-.012.253.253,0,0,1-.1-.061.325.325,0,0,1-.093-.219v-2.316a.291.291,0,0,1,.291-.291" transform="translate(-78.105 -526.31)" fill="#f9a01e"/>
      <path id="Path_9765" data-name="Path 9765" d="M86.411,545.2a.291.291,0,0,1,.291.29v2.324a.291.291,0,1,1-.582,0V545.49a.291.291,0,0,1,.291-.289" transform="translate(-78.114 -494.518)" fill="#f9a01e"/>
      <path id="Path_9766" data-name="Path 9766" d="M86.411,510.14a.291.291,0,0,1,.291.291v2.324a.291.291,0,1,1-.582,0v-2.324a.291.291,0,0,1,.291-.291" transform="translate(-78.114 -462.717)" fill="#f9a01e"/>
      <path id="Path_9767" data-name="Path 9767" d="M86.411,475.08a.291.291,0,0,1,.291.291V477.7a.291.291,0,1,1-.582,0V475.37a.291.291,0,0,1,.291-.291Z" transform="translate(-78.114 -430.916)" fill="#f9a01e"/>
      <path id="Path_9768" data-name="Path 9768" d="M86.411,440.02a.291.291,0,0,1,.291.291v2.324a.291.291,0,1,1-.582,0v-2.324a.291.291,0,0,1,.291-.291" transform="translate(-78.114 -399.115)" fill="#f9a01e"/>
      <path id="Path_9769" data-name="Path 9769" d="M86.411,404.96a.291.291,0,0,1,.291.291v2.324a.291.291,0,0,1-.582,0v-2.324a.291.291,0,0,1,.291-.291" transform="translate(-78.114 -367.315)" fill="#f9a01e"/>
      <path id="Path_9770" data-name="Path 9770" d="M86.411,369.91a.291.291,0,0,1,.291.29v2.33a.291.291,0,0,1-.582,0V370.2a.291.291,0,0,1,.291-.29" transform="translate(-78.114 -335.523)" fill="#f9a01e"/>
      <path id="Path_9771" data-name="Path 9771" d="M86.411,334.85a.291.291,0,0,1,.291.291v2.324a.291.291,0,1,1-.582,0v-2.324A.291.291,0,0,1,86.411,334.85Z" transform="translate(-78.114 -303.723)" fill="#f9a01e"/>
      <path id="Path_9772" data-name="Path 9772" d="M87.131,300.9a.322.322,0,0,1,.08.2.253.253,0,0,1-.059.186l-.05.068a1.58,1.58,0,0,0-.122.186,1.636,1.636,0,0,0-.2.645v1.137a.291.291,0,0,1-.582,0v-1.184a2.238,2.238,0,0,1,.263-.874,2.3,2.3,0,0,1,.166-.254l.068-.094a.315.315,0,0,1,.22-.112.263.263,0,0,1,.207.093" transform="translate(-78.187 -272.846)" fill="#f9a01e"/>
      <path id="Path_9773" data-name="Path 9773" d="M101.693,293.223a.291.291,0,0,1-.29.291h-1.158c-.143,0-.3.014-.421.018a.854.854,0,0,0-.167.021l-.147.028a1.643,1.643,0,0,0-.213.065l-.08.03a.263.263,0,0,1-.2,0,.319.319,0,0,1-.172-.132.263.263,0,0,1-.026-.224.32.32,0,0,1,.171-.179l.108-.039a2.209,2.209,0,0,1,.291-.084c.062-.013.132-.021.2-.033a2.2,2.2,0,0,1,.225-.033c.147,0,.284-.02.432-.02h1.163a.291.291,0,0,1,.29.291" transform="translate(-89.615 -265.698)" fill="#f9a01e"/>
      <path id="Path_9774" data-name="Path 9774" d="M136.646,293.251a.291.291,0,0,1-.291.291h-2.324a.291.291,0,1,1,0-.582h2.324a.291.291,0,0,1,.291.291Z" transform="translate(-121.308 -265.726)" fill="#f9a01e"/>
      <path id="Path_9775" data-name="Path 9775" d="M171.756,293.251a.291.291,0,0,1-.291.291h-2.324a.291.291,0,1,1,0-.582h2.324a.291.291,0,0,1,.291.291Z" transform="translate(-153.153 -265.726)" fill="#f9a01e"/>
      <path id="Path_9776" data-name="Path 9776" d="M206.756,293.251a.291.291,0,0,1-.291.291h-2.324a.291.291,0,1,1,0-.582h2.324a.291.291,0,0,1,.291.291" transform="translate(-184.9 -265.726)" fill="#f9a01e"/>
      <path id="Path_9777" data-name="Path 9777" d="M241.826,293.251a.291.291,0,0,1-.291.291h-2.324a.291.291,0,0,1,0-.582h2.324a.291.291,0,0,1,.291.291" transform="translate(-216.71 -265.726)" fill="#f9a01e"/>
      <path id="Path_9778" data-name="Path 9778" d="M276.886,293.251a.291.291,0,0,1-.291.291H274.27a.291.291,0,1,1,0-.582h2.324a.291.291,0,0,1,.291.291" transform="translate(-248.511 -265.726)" fill="#f9a01e"/>
      <path id="Path_9779" data-name="Path 9779" d="M311.936,293.251a.291.291,0,0,1-.291.291h-2.324a.291.291,0,1,1,0-.582h2.324a.291.291,0,0,1,.291.291Z" transform="translate(-280.302 -265.726)" fill="#f9a01e"/>
      <path id="Path_9780" data-name="Path 9780" d="M347,293.252a.291.291,0,0,1-.291.286h-2.324a.291.291,0,0,1,0-.582h2.324a.291.291,0,0,1,.291.291" transform="translate(-312.103 -265.727)" fill="#f9a01e"/>
      <path id="Path_9781" data-name="Path 9781" d="M382.056,293.251a.291.291,0,0,1-.291.291h-2.324a.291.291,0,1,1,0-.582h2.324a.291.291,0,0,1,.291.291" transform="translate(-343.904 -265.726)" fill="#f9a01e"/>
      <path id="Path_9782" data-name="Path 9782" d="M417.116,293.251a.291.291,0,0,1-.291.291H414.5a.291.291,0,1,1,0-.582h2.328a.291.291,0,0,1,.291.291Z" transform="translate(-375.704 -265.726)" fill="#f9a01e"/>
      <path id="Path_9783" data-name="Path 9783" d="M452.176,293.251a.291.291,0,0,1-.291.291h-2.324a.291.291,0,0,1,0-.582h2.324a.291.291,0,0,1,.291.291Z" transform="translate(-407.505 -265.726)" fill="#f9a01e"/>
      <path id="Path_9784" data-name="Path 9784" d="M487.179,293.473a.321.321,0,0,1-.157.154.263.263,0,0,1-.2.02l-.082-.021a1.719,1.719,0,0,0-.22-.039c-.046,0-.093-.022-.15-.025s-.132-.018-.192-.018h-1.59a.291.291,0,0,1,0-.582h1.59c.07,0,.132.016.2.018s.139.016.2.02a2.366,2.366,0,0,1,.3.058c.071.018.112.032.112.032a.32.32,0,0,1,.186.159.263.263,0,0,1,0,.226" transform="translate(-439.279 -265.726)" fill="#f9a01e"/>
      <path id="Path_9785" data-name="Path 9785" d="M518.821,301.871a.291.291,0,0,1-.291-.291v-.921a1.743,1.743,0,0,0-.025-.186,1.652,1.652,0,0,0-.263-.619l-.075-.1-.066-.071-.042-.047-.017-.014a.263.263,0,0,1-.079-.186.325.325,0,0,1,.059-.213.26.26,0,0,1,.195-.111.31.31,0,0,1,.23.093l.022.021.057.063.093.1.1.132a2.237,2.237,0,0,1,.361.837c.011.083.029.165.033.246a.758.758,0,0,0,0,.122.635.635,0,0,1,0,.112v.736a.291.291,0,0,1-.291.291" transform="translate(-469.81 -271.302)" fill="#f9a01e"/>
      <path id="Path_9786" data-name="Path 9786" d="M524.391,335.545a.291.291,0,0,1-.291-.289v-2.324a.291.291,0,1,1,.582,0v2.324a.291.291,0,0,1-.291.29Z" transform="translate(-475.379 -301.718)" fill="#f9a01e"/>
      <path id="Path_9787" data-name="Path 9787" d="M524.391,370.6a.291.291,0,0,1-.291-.291v-2.324a.291.291,0,1,1,.582,0v2.324a.291.291,0,0,1-.291.286" transform="translate(-475.379 -333.509)" fill="#f9a01e"/>
      <path id="Path_9788" data-name="Path 9788" d="M524.391,405.656a.291.291,0,0,1-.291-.291v-2.324a.291.291,0,0,1,.582,0v2.324a.291.291,0,0,1-.291.286" transform="translate(-475.379 -365.31)" fill="#f9a01e"/>
      <path id="Path_9789" data-name="Path 9789" d="M524.391,440.716a.291.291,0,0,1-.291-.291V438.1a.291.291,0,0,1,.582,0v2.328a.291.291,0,0,1-.291.286" transform="translate(-475.379 -397.112)" fill="#f9a01e"/>
      <path id="Path_9790" data-name="Path 9790" d="M524.391,475.776a.291.291,0,0,1-.291-.291v-2.324a.291.291,0,1,1,.582,0v2.324a.288.288,0,0,1-.022.112.292.292,0,0,1-.157.158.3.3,0,0,1-.112.022" transform="translate(-475.379 -428.911)" fill="#f9a01e"/>
      <path id="Path_9791" data-name="Path 9791" d="M524.391,510.835a.291.291,0,0,1-.291-.289v-2.324a.291.291,0,0,1,.582,0v2.324a.291.291,0,0,1-.291.289" transform="translate(-475.379 -460.713)" fill="#f9a01e"/>
      <path id="Path_9792" data-name="Path 9792" d="M524.391,545.886a.291.291,0,0,1-.291-.291V543.27a.291.291,0,0,1,.582,0v2.324a.289.289,0,0,1-.086.205.286.286,0,0,1-.093.063.291.291,0,0,1-.112.022" transform="translate(-475.379 -492.504)" fill="#f9a01e"/>
      <path id="Path_9793" data-name="Path 9793" d="M524.391,580.946a.291.291,0,0,1-.291-.291v-2.324a.291.291,0,0,1,.582,0v2.324a.292.292,0,0,1-.179.263.3.3,0,0,1-.112.022" transform="translate(-475.379 -524.305)" fill="#f9a01e"/>
      <path id="Path_9794" data-name="Path 9794" d="M430.333,426.41H421.12a3.393,3.393,0,1,0,0,6.786h9.213a.94.94,0,0,0,.97-.929v-4.85a1,1,0,0,0-.97-1" transform="translate(-378.899 -386.771)" fill="#6abe59"/>
      <path id="Path_9795" data-name="Path 9795" d="M556.28,429.763a.2.2,0,0,0,.195.195h.454a1.329,1.329,0,0,0-.233-.388h-.22a.2.2,0,0,0-.195.194" transform="translate(-504.568 -389.638)" fill="#2f6c5d"/>
      <path id="Path_9796" data-name="Path 9796" d="M534.806,429.565H533.25a.2.2,0,0,0-.079.011.191.191,0,0,0-.067.041.195.195,0,0,0,.067.325.191.191,0,0,0,.079.011H534.8a.195.195,0,0,0,0-.388Z" transform="translate(-483.495 -389.633)" fill="#2f6c5d"/>
      <path id="Path_9797" data-name="Path 9797" d="M511.977,429.57h-1.552a.195.195,0,0,0,0,.388h1.552a.195.195,0,0,0,0-.388Z" transform="translate(-462.811 -389.638)" fill="#2f6c5d"/>
      <path id="Path_9798" data-name="Path 9798" d="M488.632,429.565h-1.55a.195.195,0,0,0-.079.376.193.193,0,0,0,.079.01h1.55a.192.192,0,0,0,.078-.01.194.194,0,0,0-.079-.376Z" transform="translate(-441.614 -389.633)" fill="#2f6c5d"/>
      <path id="Path_9799" data-name="Path 9799" d="M465.546,429.565h-1.552a.194.194,0,0,0-.079.376.192.192,0,0,0,.079.01h1.552a.195.195,0,0,0,0-.388Z" transform="translate(-420.672 -389.633)" fill="#2f6c5d"/>
      <path id="Path_9800" data-name="Path 9800" d="M442.8,429.57h-.491c-.093,0-.2.028-.3.032a2.762,2.762,0,0,0-.3.053,2.407,2.407,0,0,0-.263.067,1.376,1.376,0,0,0-.178.059l-.067.026a.188.188,0,0,0-.067.039.186.186,0,0,0-.043.216.2.2,0,0,0,.247.108l.058-.021a1.081,1.081,0,0,1,.157-.05c.066-.016.141-.04.225-.055s.172-.046.263-.055a2.646,2.646,0,0,1,.263-.03h.491a.195.195,0,0,0,0-.388Z" transform="translate(-400.07 -389.638)" fill="#2f6c5d"/>
      <path id="Path_9801" data-name="Path 9801" d="M425.381,434.923l-.061.037c-.038.025-.088.065-.151.112l-.1.074-.1.093-.111.1c-.036.036-.07.075-.1.113l-.1.115-.094.118-.084.112-.066.107c-.039.066-.074.121-.093.161l-.032.065a.186.186,0,0,0,.093.263.2.2,0,0,0,.257-.087s.009-.021.028-.055.049-.083.084-.141l.057-.093.074-.094.078-.105.093-.1.094-.1.093-.087.093-.083.087-.065a1.205,1.205,0,0,1,.132-.094l.053-.033a.2.2,0,0,0,.062-.263.186.186,0,0,0-.263-.063" transform="translate(-384.818 -394.47)" fill="#2f6c5d"/>
      <path id="Path_9802" data-name="Path 9802" d="M421.355,454.639l-.014-.061a1.185,1.185,0,0,1-.037-.159c-.009-.067-.024-.145-.033-.229s-.009-.175-.014-.263a2.463,2.463,0,0,1,.014-.263,1.542,1.542,0,0,1,.033-.229,1.207,1.207,0,0,1,.037-.159c.009-.039.014-.061.014-.061a.2.2,0,0,0-.132-.236.186.186,0,0,0-.211.063.19.19,0,0,0-.033.071l-.017.068a1.629,1.629,0,0,0-.041.186c-.011.076-.026.166-.038.263s-.011.2-.016.3a2.654,2.654,0,0,0,.016.3,1.8,1.8,0,0,0,.038.263,1.647,1.647,0,0,0,.041.186l.017.068a.191.191,0,0,0,.033.071.186.186,0,0,0,.059.051.188.188,0,0,0,.075.022.186.186,0,0,0,.078-.011.2.2,0,0,0,.132-.236" transform="translate(-381.744 -410.856)" fill="#2f6c5d"/>
      <path id="Path_9803" data-name="Path 9803" d="M425.489,476.66l-.053-.033c-.033-.022-.078-.058-.132-.094l-.093-.064c-.028-.026-.058-.054-.094-.083a1.037,1.037,0,0,1-.094-.088l-.092-.1-.093-.1-.078-.105-.074-.1-.057-.093-.084-.141a.292.292,0,0,1-.026-.055.2.2,0,0,0-.257-.087.186.186,0,0,0-.093.263l.032.063c.02.039.055.093.093.161l.066.107.084.112.094.12.1.115c.036.038.07.078.105.113l.111.1.1.093.1.075c.062.046.112.087.15.112l.061.036a.185.185,0,0,0,.149.029.179.179,0,0,0,.07-.033.183.183,0,0,0,.051-.058.2.2,0,0,0-.062-.263" transform="translate(-384.717 -431.301)" fill="#2f6c5d"/>
      <path id="Path_9804" data-name="Path 9804" d="M442.795,490.589H442.3a2.56,2.56,0,0,1-.263,0c-.091-.009-.179-.017-.263-.029a2.1,2.1,0,0,1-.225-.051,1.177,1.177,0,0,1-.157-.049l-.058-.02a.2.2,0,0,0-.247.108.181.181,0,0,0-.017.076.185.185,0,0,0,.061.14.189.189,0,0,0,.067.039l.067.024a1.4,1.4,0,0,0,.178.058c.075.017.163.045.263.062s.2.016.3.026a2.946,2.946,0,0,0,.3,0h.491a.2.2,0,1,0,0-.395" transform="translate(-400.068 -444.841)" fill="#2f6c5d"/>
      <path id="Path_9805" data-name="Path 9805" d="M465.676,492.13h-1.552a.2.2,0,0,0,0,.395h1.552a.2.2,0,0,0,0-.395Z" transform="translate(-420.804 -446.381)" fill="#2f6c5d"/>
      <path id="Path_9806" data-name="Path 9806" d="M488.764,492.134h-1.55a.194.194,0,0,0-.132.057.188.188,0,0,0,.132.32h1.55a.2.2,0,1,0,0-.395" transform="translate(-441.745 -446.386)" fill="#2f6c5d"/>
      <path id="Path_9807" data-name="Path 9807" d="M511.846,492.13h-1.552a.2.2,0,0,0,0,.395h1.552a.2.2,0,1,0,0-.395Z" transform="translate(-462.682 -446.381)" fill="#2f6c5d"/>
      <path id="Path_9808" data-name="Path 9808" d="M534.936,492.13h-1.552a.2.2,0,0,0,0,.395h1.552a.2.2,0,0,0,0-.395Z" transform="translate(-483.626 -446.381)" fill="#2f6c5d"/>
      <path id="Path_9809" data-name="Path 9809" d="M556.28,492.326a.2.2,0,0,0,.195.195h.22a.694.694,0,0,0,.233-.395h-.454a.2.2,0,0,0-.195.195" transform="translate(-504.568 -446.383)" fill="#2f6c5d"/>
      <path id="Path_9810" data-name="Path 9810" d="M441.5,448.748a1.448,1.448,0,1,1-.426-1.028,1.448,1.448,0,0,1,.426,1.028" transform="translate(-397.815 -405.719)" fill="#194041"/>
      <path id="Path_9811" data-name="Path 9811" d="M445.706,448.99a1.448,1.448,0,0,1-1.6,2.4,1.448,1.448,0,1,0,1.6-2.4" transform="translate(-402.826 -407.252)" fill="#194041"/>
      <path id="Path_9812" data-name="Path 9812" d="M13.958,52.6a6.976,6.976,0,1,1-2.041-4.936A6.976,6.976,0,0,1,13.958,52.6" transform="translate(0.002 -41.38)" fill="#fecd10"/>
      <path id="Path_9813" data-name="Path 9813" d="M27.926,68.163a5.379,5.379,0,1,1-1.579-3.808,5.379,5.379,0,0,1,1.579,3.808" transform="translate(-15.562 -56.943)" fill="#fecd10"/>
      <path id="Path_9814" data-name="Path 9814" d="M16.835,66.435a5.336,5.336,0,1,0,6.419-3.967A5.336,5.336,0,0,0,16.835,66.435Zm3.948,6.514A5.433,5.433,0,1,1,27.316,68.9a5.433,5.433,0,0,1-6.532,4.045Z" transform="translate(-15.052 -56.443)" fill="#e56e25" fill-rule="evenodd"/>
      <path id="Path_9815" data-name="Path 9815" d="M17.6,68.623a5.383,5.383,0,0,1,8.95-4.038,5.384,5.384,0,1,0-7.6,7.6,5.363,5.363,0,0,1-1.345-3.56" transform="translate(-15.529 -56.923)" fill="#f9a01e"/>
      <path id="Path_9816" data-name="Path 9816" d="M36.434,55.311l-.395-.691c-.117.063-.232.132-.345.2l.395.691C36.2,55.441,36.315,55.374,36.434,55.311Z" transform="translate(-32.371 -49.542)" fill="#ffb300"/>
      <path id="Path_9817" data-name="Path 9817" d="M.8,118.37v-.2H0v.395H.8Z" transform="translate(0 -107.185)" fill="#ffb300"/>
      <path id="Path_9818" data-name="Path 9818" d="M26.019,62.447l-.513-.611c-.1.083-.207.168-.305.257l.512.612C25.812,62.616,25.913,62.535,26.019,62.447Z" transform="translate(-22.857 -56.092)" fill="#ffb300"/>
      <path id="Path_9819" data-name="Path 9819" d="M1.645,105.688l-.79-.138c-.026.132-.049.263-.068.395l.79.138C1.594,105.95,1.619,105.818,1.645,105.688Z" transform="translate(-0.717 -95.738)" fill="#ffb300"/>
      <path id="Path_9820" data-name="Path 9820" d="M4.687,93.282l-.755-.272c-.049.122-.093.249-.132.372l.75.274A3.784,3.784,0,0,1,4.687,93.282Z" transform="translate(-3.447 -84.364)" fill="#ffb300"/>
      <path id="Path_9821" data-name="Path 9821" d="M60.462,47.2l-.138-.79c-.132.02-.263.042-.395.068l.138.79C60.2,47.239,60.329,47.216,60.462,47.2Z" transform="translate(-54.359 -42.097)" fill="#ffb300"/>
      <path id="Path_9822" data-name="Path 9822" d="M9.854,81.708l-.695-.395c-.07.113-.132.229-.2.346l.691.395c.063-.117.132-.233.2-.345" transform="translate(-8.127 -73.75)" fill="#ffb300"/>
      <path id="Path_9823" data-name="Path 9823" d="M17.077,71.333l-.611-.513q-.132.149-.257.305l.611.513Q16.944,71.481,17.077,71.333Z" transform="translate(-14.703 -64.237)" fill="#ffb300"/>
      <path id="Path_9824" data-name="Path 9824" d="M48.066,50.162l-.276-.752c-.132.042-.251.087-.372.132l.272.75c.124-.049.249-.093.372-.132" transform="translate(-43.013 -44.817)" fill="#ffb300"/>
      <path id="Path_9825" data-name="Path 9825" d="M136.946,93.685l.75-.274c-.042-.132-.087-.251-.132-.372l-.75.274C136.859,93.436,136.9,93.56,136.946,93.685Z" transform="translate(-124.091 -84.39)" fill="#ffb300"/>
      <path id="Path_9826" data-name="Path 9826" d="M131.77,82.054l.691-.395c-.064-.117-.132-.233-.2-.346l-.691.395c.07.112.132.228.2.345" transform="translate(-119.339 -73.75)" fill="#ffb300"/>
      <path id="Path_9827" data-name="Path 9827" d="M124.862,71.638l.612-.513q-.124-.157-.257-.305l-.612.513A3.289,3.289,0,0,1,124.862,71.638Z" transform="translate(-113.028 -64.237)" fill="#ffb300"/>
      <path id="Path_9828" data-name="Path 9828" d="M73.159,46.409h.2v-.8h-.395v.8Z" transform="translate(-66.177 -41.369)" fill="#ffb300"/>
      <path id="Path_9829" data-name="Path 9829" d="M140.238,106.082l.79-.138c-.018-.132-.042-.263-.068-.395l-.79.138C140.2,105.819,140.22,105.95,140.238,106.082Z" transform="translate(-127.14 -95.738)" fill="#ffb300"/>
      <path id="Path_9830" data-name="Path 9830" d="M116.465,62.7l.513-.612q-.15-.132-.305-.257l-.513.612c.1.083.207.168.305.263" transform="translate(-105.362 -56.083)" fill="#ffb300"/>
      <path id="Path_9831" data-name="Path 9831" d="M84.9,47.266l.138-.79c-.132-.026-.263-.049-.395-.068l-.138.79C84.642,47.216,84.774,47.238,84.9,47.266Z" transform="translate(-76.654 -42.096)" fill="#ffb300"/>
      <path id="Path_9832" data-name="Path 9832" d="M96.2,50.312l.274-.75c-.124-.049-.249-.093-.372-.132l-.272.75C95.956,50.221,96.081,50.267,96.2,50.312Z" transform="translate(-86.922 -44.835)" fill="#ffb300"/>
      <path id="Path_9833" data-name="Path 9833" d="M106.8,55.514l.395-.691c-.112-.07-.228-.132-.345-.2l-.395.691A3.494,3.494,0,0,1,106.8,55.514Z" transform="translate(-96.564 -49.541)" fill="#ffb300"/>
      <path id="Path_9834" data-name="Path 9834" d="M116.16,170.488l.513.611q.157-.125.305-.257l-.513-.612C116.367,170.322,116.264,170.405,116.16,170.488Z" transform="translate(-105.362 -154.406)" fill="#ffb300"/>
      <path id="Path_9835" data-name="Path 9835" d="M84.51,185.858l.138.79c.132-.02.263-.042.395-.068l-.138-.79C84.773,185.818,84.642,185.84,84.51,185.858Z" transform="translate(-76.654 -168.519)" fill="#ffb300"/>
      <path id="Path_9836" data-name="Path 9836" d="M106.46,177.39l.395.691c.117-.063.233-.132.345-.2l-.395-.691C106.693,177.261,106.577,177.328,106.46,177.39Z" transform="translate(-96.564 -160.718)" fill="#ffb300"/>
      <path id="Path_9837" data-name="Path 9837" d="M95.8,182.547l.274.75c.132-.042.251-.087.372-.132l-.271-.753c-.122.049-.249.093-.372.132" transform="translate(-86.895 -165.452)" fill="#ffb300"/>
      <path id="Path_9838" data-name="Path 9838" d="M124.61,162.085l.612.513q.132-.149.257-.305l-.612-.513Q124.744,161.938,124.61,162.085Z" transform="translate(-113.026 -146.742)" fill="#ffb300"/>
      <path id="Path_9839" data-name="Path 9839" d="M142.319,118.17h-.8v.395h.8Z" transform="translate(-128.364 -107.185)" fill="#ffb300"/>
      <path id="Path_9840" data-name="Path 9840" d="M140.17,130.574l.79.138c.026-.132.049-.263.068-.395l-.79-.138C140.22,130.312,140.2,130.444,140.17,130.574Z" transform="translate(-127.14 -118.078)" fill="#ffb300"/>
      <path id="Path_9841" data-name="Path 9841" d="M136.81,141.782l.752.274c.049-.122.093-.249.132-.372l-.75-.274c-.042.132-.087.251-.132.372" transform="translate(-124.092 -128.264)" fill="#ffb300"/>
      <path id="Path_9842" data-name="Path 9842" d="M131.57,152.425l.691.395c.07-.113.132-.229.2-.346l-.691-.395c-.063.117-.132.233-.2.345" transform="translate(-119.339 -137.943)" fill="#ffb300"/>
      <path id="Path_9843" data-name="Path 9843" d="M4.55,141.41l-.75.279c.042.132.087.251.132.372l.75-.274c-.049-.122-.093-.247-.132-.372" transform="translate(-3.447 -128.264)" fill="#ffb300"/>
      <path id="Path_9844" data-name="Path 9844" d="M9.691,152.08l-.691.4c.063.117.132.233.2.346l.691-.395c-.07-.112-.132-.228-.2-.345" transform="translate(-8.163 -137.943)" fill="#ffb300"/>
      <path id="Path_9845" data-name="Path 9845" d="M73.16,187.2h-.2v.8h.395v-.8Z" transform="translate(-66.178 -169.798)" fill="#ffb300"/>
      <path id="Path_9846" data-name="Path 9846" d="M25.712,170.23l-.512.612c.1.093.2.174.305.257l.513-.611C25.913,170.405,25.812,170.322,25.712,170.23Z" transform="translate(-22.857 -154.406)" fill="#ffb300"/>
      <path id="Path_9847" data-name="Path 9847" d="M1.577,130.13l-.79.138c.02.132.042.263.068.395l.79-.138C1.619,130.393,1.594,130.262,1.577,130.13Z" transform="translate(-0.717 -118.033)" fill="#ffb300"/>
      <path id="Path_9848" data-name="Path 9848" d="M16.821,161.78l-.611.513c.082.1.168.205.257.305l.611-.512c-.088-.1-.175-.2-.257-.305" transform="translate(-14.703 -146.742)" fill="#ffb300"/>
      <path id="Path_9849" data-name="Path 9849" d="M60.068,185.79l-.138.79c.132.026.263.049.395.068l.138-.79C60.329,185.84,60.2,185.818,60.068,185.79Z" transform="translate(-54.359 -168.519)" fill="#ffb300"/>
      <path id="Path_9850" data-name="Path 9850" d="M36.088,177.19l-.395.691c.113.07.228.132.345.2l.395-.691C36.316,177.328,36.2,177.261,36.088,177.19Z" transform="translate(-32.371 -160.718)" fill="#ffb300"/>
      <path id="Path_9851" data-name="Path 9851" d="M47.665,182.41l-.272.75c.122.049.249.093.372.132l.274-.75c-.132-.041-.251-.087-.372-.132" transform="translate(-42.984 -165.453)" fill="#ffb300"/>
      <path id="Path_9852" data-name="Path 9852" d="M22.766,58.92c0,.941-.379,1.316-1.316,1.316.937,0,1.316.378,1.316,1.316,0-.944.395-1.316,1.316-1.316C23.157,60.236,22.766,59.864,22.766,58.92Z" transform="translate(-19.456 -53.442)" fill="#ffecb3"/>
      <path id="Path_9853" data-name="Path 9853" d="M121.433,126.54c0,.753-.3,1.053-1.053,1.053.75,0,1.053.3,1.053,1.053,0-.755.313-1.053,1.053-1.053C121.742,127.593,121.433,127.293,121.433,126.54Z" transform="translate(-109.19 -114.776)" fill="#ffecb3"/>
      <g id="Group_1552" data-name="Group 1552" transform="translate(4.783 8.746)" opacity="0.3">
        <g id="Group_1551" data-name="Group 1551" opacity="0.3">
          <g id="Group_1549" data-name="Group 1549" transform="translate(0.146 0.146)" opacity="0.3">
            <path id="Path_9854" data-name="Path 9854" d="M56.662,95.65H53.02V96.1h1.148a1.287,1.287,0,0,1,1.088,1.011H53.1v.22H55.26a1.394,1.394,0,0,1-1.477,1.053,3.685,3.685,0,0,1-.758-.055v.342h0l2.568,2.568h.629l-2.456-2.448h0a1.862,1.862,0,0,0,1.994-1.457h.89v-.22h-.879a1.448,1.448,0,0,0-.6-1.011h1.487Z" transform="translate(-53.02 -95.65)" fill="#1d5f3e"/>
          </g>
          <g id="Group_1550" data-name="Group 1550" opacity="0.3">
            <path id="Path_9855" data-name="Path 9855" d="M51.455,94.085h3.934v.741H54.128a1.59,1.59,0,0,1,.349.72h.911v.511H54.48a1.974,1.974,0,0,1-1.794,1.437l2.476,2.469H54.12L51.551,97.4h-.092v-.658l.171.03a3.555,3.555,0,0,0,.729.053h0a1.325,1.325,0,0,0,1.3-.762H51.531v-.511h2.123a1.214,1.214,0,0,0-.921-.72H51.456Zm.295,3.1,2.49,2.49h.217L52,97.224h.357A1.72,1.72,0,0,0,54.2,95.9l.009-.109-.009-.082a1.3,1.3,0,0,0-.537-.909l-.37-.263h1.8v-.159H51.746v.157h1.032a1.432,1.432,0,0,1,1.2,1.136l.011.091H54v.072h0l-.011.091a1.536,1.536,0,0,1-1.619,1.185,3.837,3.837,0,0,1-.616-.03Z" transform="translate(-51.455 -94.085)" fill="#fff" fill-rule="evenodd"/>
          </g>
        </g>
      </g>
      <path id="Path_9856" data-name="Path 9856" d="M57.122,94.56H53.48v.448h1.146a1.288,1.288,0,0,1,1.088,1.012h-2.16v.218h2.16a1.393,1.393,0,0,1-1.477,1.053,3.741,3.741,0,0,1-.758-.054v.342h0l2.569,2.569h.629L54.228,97.7a1.861,1.861,0,0,0,1.993-1.458h.89v-.218h-.882a1.448,1.448,0,0,0-.6-1.013h1.487Z" transform="translate(-48.509 -85.769)" fill="#fff"/>
      <path id="Path_9857" data-name="Path 9857" d="M51.915,92.995h3.929v.742H54.583a1.592,1.592,0,0,1,.35.723h.911v.509h-.908a1.966,1.966,0,0,1-1.789,1.439l2.47,2.47H54.576L52.008,96.31h-.092v-.658l.171.03a3.6,3.6,0,0,0,.729.051h0a1.324,1.324,0,0,0,1.294-.762H51.99v-.509h2.123a1.214,1.214,0,0,0-.921-.721H51.915Zm.291,3.1,2.49,2.49h.218l-2.451-2.451h.353a1.718,1.718,0,0,0,1.843-1.327l.012-.132h0v-.057a1.3,1.3,0,0,0-.538-.911l-.371-.263h1.8v-.161H52.206v.161h1.031a1.432,1.432,0,0,1,1.2,1.137l.011.091h.009v.072H54.45l-.011.091a1.535,1.535,0,0,1-1.619,1.185,3.892,3.892,0,0,1-.616-.03Z" transform="translate(-47.089 -84.35)" fill="#fff" fill-rule="evenodd"/>
      <path id="Path_9858" data-name="Path 9858" d="M189.768,469.6a2.333,2.333,0,0,1-1.758-.692,2.822,2.822,0,0,1,0-3.65,2.335,2.335,0,0,1,1.758-.692,2.446,2.446,0,0,1,1.461.436,1.843,1.843,0,0,1,.761,1.149l-1.063.384a1.092,1.092,0,0,0-.412-.607,1.16,1.16,0,0,0-.713-.23,1.131,1.131,0,0,0-.887.382,1.654,1.654,0,0,0,0,2.01,1.131,1.131,0,0,0,.887.38,1.161,1.161,0,0,0,.713-.23,1.092,1.092,0,0,0,.412-.607l1.063.384a1.842,1.842,0,0,1-.761,1.149,2.446,2.446,0,0,1-1.461.436Z" transform="translate(-169.924 -421.375)" fill="#194041"/>
      <path id="Path_9859" data-name="Path 9859" d="M241.157,470.33l-.241-.744h-1.852l-.24.744H237.59l1.711-4.87h1.371l1.711,4.87Zm-1.756-1.766h1.185l-.59-1.831Z" transform="translate(-215.503 -422.191)" fill="#194041"/>
      <path id="Path_9860" data-name="Path 9860" d="M292.246,469.594a2.185,2.185,0,0,1-1.375-.422,1.5,1.5,0,0,1-.6-1.116l1.085-.164a.658.658,0,0,0,.284.511,1.105,1.105,0,0,0,.675.195.846.846,0,0,0,.5-.132.408.408,0,0,0,.186-.346q0-.324-.4-.405l-.953-.226a1.735,1.735,0,0,1-.929-.511,1.336,1.336,0,0,1-.321-.921,1.316,1.316,0,0,1,.527-1.087,2.19,2.19,0,0,1,1.394-.416,1.891,1.891,0,0,1,1.135.35,1.525,1.525,0,0,1,.613.929l-1.042.316a.629.629,0,0,0-.247-.432.838.838,0,0,0-.526-.164.744.744,0,0,0-.473.141.446.446,0,0,0-.179.372c0,.186.149.315.445.384l.948.24a1.4,1.4,0,0,1,1.214,1.435,1.271,1.271,0,0,1-.54,1.069A2.305,2.305,0,0,1,292.246,469.594Z" transform="translate(-263.286 -421.372)" fill="#194041"/>
      <path id="Path_9861" data-name="Path 9861" d="M342.139,465.46H343.3v4.87h-1.166v-1.886h-1.783v1.886h-1.166v-4.87h1.166v1.886h1.783Z" transform="translate(-307.659 -422.191)" fill="#194041"/>
      <path id="Path_9862" data-name="Path 9862" d="M184.87,382.388c-.037-.043-.072-.087-.112-.132a2.54,2.54,0,0,0-.958-.628,2.453,2.453,0,0,0-.686-.159,2.682,2.682,0,0,0-2.237.828,3.027,3.027,0,0,0-.67,1.1,3.252,3.252,0,0,0-.175.744,3.167,3.167,0,0,0-.015.6,3.335,3.335,0,0,0,.695,1.823,3.458,3.458,0,0,0,1.023.873,3.909,3.909,0,0,0,1.277.471c.161.029.324.042.486.059a1.8,1.8,0,0,1,.2.008,4,4,0,0,0,1.606-.305,3.852,3.852,0,0,0,1.045-.632c.132-.113.254-.238.378-.359a.1.1,0,0,1,.038-.029.1.1,0,0,1,.046-.009,1.087,1.087,0,0,0,.109,0c-.04.043-.072.083-.107.12a4.139,4.139,0,0,1-1.961,1.185,3.329,3.329,0,0,1-.594.115c-.172.016-.346.034-.52.033a4.121,4.121,0,0,1-1.76-.395,3.825,3.825,0,0,1-1.073-.744,3.389,3.389,0,0,1-.938-1.72,3.334,3.334,0,0,1-.071-.551,3.377,3.377,0,0,1,.353-1.7,3,3,0,0,1,.911-1.109,2.834,2.834,0,0,1,1.166-.5,2.651,2.651,0,0,1,.605-.047,2.743,2.743,0,0,1,1.868.79,2.254,2.254,0,0,1,.636,1.257c.018.107.043.211.062.317a2.168,2.168,0,0,1,.022.5,2.288,2.288,0,0,1-.132.65,2.381,2.381,0,0,1-1.074,1.274,2.308,2.308,0,0,1-.811.279,2.384,2.384,0,0,1-.562.017,2.307,2.307,0,0,1-1.254-.491,2.352,2.352,0,0,1-.877-1.406,2.213,2.213,0,0,1-.047-.58,2.343,2.343,0,0,1,.49-1.341,2.369,2.369,0,0,1,1.345-.875,2.267,2.267,0,0,1,.711-.058,2.352,2.352,0,0,1,1.383.566c.049.041.093.087.141.132l.028.025.009-.008Zm-1.135.58-.009.013.028.02a1.126,1.126,0,0,1,.232.195,1.073,1.073,0,0,1,.287.667,1.084,1.084,0,0,1-.132.609.921.921,0,0,1-1.154.426.771.771,0,0,1-.487-.929.65.65,0,0,1,.758-.5.557.557,0,0,1,.47.609.473.473,0,0,1-.526.429.395.395,0,0,1-.346-.465.331.331,0,0,1,.046-.132.333.333,0,0,1,.349-.151.283.283,0,0,1,.195.421c-.026.045-.059.057-.093.038s-.038-.053-.014-.093c0-.008.008-.014.012-.022a.157.157,0,0,0-.049-.186.205.205,0,0,0-.244,0,.263.263,0,0,0-.053.34.324.324,0,0,0,.43.087.407.407,0,0,0,.1-.577.505.505,0,0,0-.666-.117.587.587,0,0,0-.271.567.61.61,0,0,0,.157.372.79.79,0,0,0,1.125.025.929.929,0,0,0,.274-.777.9.9,0,0,0-.147-.43,1.184,1.184,0,0,0-1.464-.395.873.873,0,0,0-.294.195,1.185,1.185,0,0,0-.279,1.161,1.221,1.221,0,0,0,1.133.9,1.185,1.185,0,0,0,.545-.105,1.224,1.224,0,0,0,.721-1.294,1.191,1.191,0,0,0-.42-.765,1.962,1.962,0,0,0-.208-.15" transform="translate(-163.173 -345.883)" fill="#194041" fill-rule="evenodd"/>
      <path id="Path_9863" data-name="Path 9863" d="M338.719,385.956v-.118c0-.036.008-.036.037-.036h1.081c.034,0,.036.018.036.043v4.363a.132.132,0,0,1-.118.132h-.869a.142.142,0,0,1-.063,0,.14.14,0,0,1-.055-.032.185.185,0,0,1-.043-.083c-.012-.094-.062-.125-.15-.094-.145.053-.288.109-.436.157a2.574,2.574,0,0,1-.515.113,1.841,1.841,0,0,1-.416-.01,2.279,2.279,0,0,1-.671-.186,2.369,2.369,0,0,1-1.242-1.254,2.222,2.222,0,0,1-.172-.658,2.389,2.389,0,0,1,1.774-2.565,2.746,2.746,0,0,1,.409-.067,2.056,2.056,0,0,1,.33,0,2.42,2.42,0,0,1,1.04.295l.046.024Zm-2.459,2.058a1.231,1.231,0,1,0,.361-.866,1.231,1.231,0,0,0-.361.866" transform="translate(-303.953 -349.786)" fill="#194041" fill-rule="evenodd"/>
      <path id="Path_9864" data-name="Path 9864" d="M235.543,389.7h-1.831a.065.065,0,0,1-.036-.007.067.067,0,0,1-.037-.058.066.066,0,0,1,.009-.034,1.245,1.245,0,0,1,.058-.111l.837-1.487.921-1.644.061-.109c.046-.083.009-.143-.084-.145H234.6a.149.149,0,0,1-.163-.165v-.828a.145.145,0,0,1,.159-.163h2.868a.066.066,0,0,1,.051.037.069.069,0,0,1,0,.032.066.066,0,0,1-.01.032c-.03.06-.063.118-.093.178q-.465.837-.929,1.665l-.823,1.466a.551.551,0,0,0-.032.062.082.082,0,0,0-.012.038.08.08,0,0,0,.036.07.081.081,0,0,0,.038.013.249.249,0,0,0,.053,0h1.6a.143.143,0,0,1,.161.161v.837a.141.141,0,0,1-.095.153.139.139,0,0,1-.064,0h-1.815" transform="translate(-211.921 -349.165)" fill="#194041" fill-rule="evenodd"/>
      <path id="Path_9865" data-name="Path 9865" d="M293.065,384.877h.465a.245.245,0,0,1,.241.151l.9,1.9h0c.017.03.033.062.072.062s.058-.03.072-.062l.279-.588q.226-.474.45-.946c.059-.132.118-.251.179-.378a.239.239,0,0,1,.23-.146h.979c.078,0,.109.053.078.132-.021.049-.045.093-.068.145l-.844,1.774-1.062,2.238c-.076.159-.15.319-.226.478-.014.03-.026.067-.067.067s-.054-.036-.067-.067l-.576-1.208-1.381-2.906-.238-.5a.092.092,0,0,1-.013-.086.084.084,0,0,1,.093-.049Z" transform="translate(-265.277 -349.098)" fill="#194041" fill-rule="evenodd"/>
      <path id="Path_9866" data-name="Path 9866" d="M277.588,387.29v-2.219A.191.191,0,0,1,277.6,385a.132.132,0,0,1,.132-.094h.88a.132.132,0,0,1,.132.132v4.508a.132.132,0,0,1-.121.125h-.874a.141.141,0,0,1-.15-.108.255.255,0,0,1,0-.058v-2.222" transform="translate(-251.783 -349.129)" fill="#194041" fill-rule="evenodd"/>
      <path id="Path_9867" data-name="Path 9867" d="M233.44,377.933v-.48c0-.033.009-.042.041-.042h.617c.042,0,.042,0,.033.039l-.246.97a.042.042,0,0,1-.049.037h-.355c-.032,0-.042-.008-.042-.041v-.484" transform="translate(-211.739 -342.326)" fill="#194041" fill-rule="evenodd"/>
      <path id="Path_9868" data-name="Path 9868" d="M394.67,377.916c.013-.039.026-.08.038-.121.037-.118.075-.237.109-.355a.039.039,0,0,1,0-.016.034.034,0,0,1,.01-.012.039.039,0,0,1,.014-.007h.1c.028,0,.026.008.026.026v.588c0,.033-.024.026-.042.026s-.045.008-.043-.028v-.466a.3.3,0,0,0,0-.042h-.011a.109.109,0,0,1-.013.037l-.139.459a.047.047,0,0,1-.053.042c-.033,0-.053,0-.062-.042-.047-.159-.1-.317-.149-.475,0-.011-.009-.021-.013-.033h-.01v.5c0,.032-.008.045-.042.045s-.045-.008-.045-.042v-.558c0-.03.009-.039.039-.039.109,0,.109,0,.142.1.039.132.079.25.118.372a.1.1,0,0,0,.013.033h.011" transform="translate(-357.692 -342.32)" fill="#194041" fill-rule="evenodd"/>
      <path id="Path_9869" data-name="Path 9869" d="M387.976,377.763v-.24c0-.029-.008-.039-.037-.039H387.8c-.03,0-.032-.016-.03-.037s-.009-.047.028-.047h.465c.037,0,.03.024.03.046s0,.041-.033.039h-.138c-.03,0-.041.011-.039.039V378c0,.013-.008.036-.013.037a.313.313,0,0,1-.078,0,.122.122,0,0,1,0-.028v-.249" transform="translate(-351.718 -342.316)" fill="#194041" fill-rule="evenodd"/>
    </g>
  </g>
</svg>
